PathFileType	4	(X/Y/Z)	 s01c0202.trc
DataRate	CameraRate	NumFrames	NumMarkers	Units	OrigDataRate	OrigDataStartFrame	OrigNumFrames
200	200	5	48	mm	200	1001	2000
Frame#	Time	racr			lacr			c7			jug			rlel			rdr			llel			ldr			s2			lic			ric			lasi			rasi			rpsi			lpsi			rgt			lgt			rth1			rth2			rth3			rth4			rlfc			rsh1			rsh2			rsh3			rsh4			rlmal			rmmal			rcal			rtoe			rmt5			lth1			lth2			lth4			lth3			llfc			lsh1			lsh2			lsh3			lsh4			llmal			lmmal			lcal			ltoe			lmt5			SBIKE			LBIKE			RBIKE			
		X1	Y1	Z1	X2	Y2	Z2	X3	Y3	Z3	X4	Y4	Z4	X5	Y5	Z5	X6	Y6	Z6	X7	Y7	Z7	X8	Y8	Z8	X9	Y9	Z9	X10	Y10	Z10	X11	Y11	Z11	X12	Y12	Z12	X13	Y13	Z13	X14	Y14	Z14	X15	Y15	Z15	X16	Y16	Z16	X17	Y17	Z17	X18	Y18	Z18	X19	Y19	Z19	X20	Y20	Z20	X21	Y21	Z21	X22	Y22	Z22	X23	Y23	Z23	X24	Y24	Z24	X25	Y25	Z25	X26	Y26	Z26	X27	Y27	Z27	X28	Y28	Z28	X29	Y29	Z29	X30	Y30	Z30	X31	Y31	Z31	X32	Y32	Z32	X33	Y33	Z33	X34	Y34	Z34	X35	Y35	Z35	X36	Y36	Z36	X37	Y37	Z37	X38	Y38	Z38	X39	Y39	Z39	X40	Y40	Z40	X41	Y41	Z41	X42	Y42	Z42	X43	Y43	Z43	X44	Y44	Z44	X45	Y45	Z45	X46	Y46	Z46	X47	Y47	Z47	X48	Y48	Z48	
1001	5.0050	558.568991	1228.867722	-76.976076	555.020652	1221.092119	-436.434938	531.876575	1340.079875	-252.075634	519.864738	1171.984143	-252.898489	467.291519	979.861743	52.122863	681.540019	893.717993	-27.977695	481.338376	979.281157	-578.313187	657.983947	883.122124	-439.621163	-0.377741	1153.764784	-232.237165	149.139152	1169.447375	-416.660942	159.782153	1148.396615	-78.274845	159.977569	1114.948761	-393.680740	188.140049	1112.834130	-112.771045	30.577711	1190.341624	-180.287082	24.033141	1196.361222	-286.414212	123.664019	1051.618289	-50.934959	97.951165	1025.509298	-433.732452	239.978455	1001.790155	-47.680813	320.105478	982.621175	-57.805517	404.390355	955.800200	-73.659492	333.461686	1034.280954	-76.237802	483.690535	888.704263	-108.726551	394.701045	820.939909	-76.468897	332.361120	764.068927	-80.497965	261.290703	710.733914	-88.480162	364.267474	726.931476	-115.282517	160.660943	638.802189	-104.441190	201.976735	618.888805	-182.155799	111.061809	643.149421	-159.892293	279.969179	429.918881	-134.964873	187.635475	490.509433	-70.580036	147.926816	903.810703	-440.228279	206.791518	836.847705	-439.428578	247.973644	872.537734	-438.503023	257.797119	769.942782	-421.378960	318.859438	665.336118	-409.527785	262.823461	568.506846	-443.301300	246.169633	483.752107	-436.538405	227.470124	400.740274	-423.649951	301.547259	475.422720	-410.745176	200.180692	276.471400	-408.845380	250.506976	316.107961	-330.345914	152.660517	252.489604	-368.322588	419.062869	175.949408	-374.441494	312.011320	171.549849	-441.012291	-223.958862	893.354297	-252.370911	-12.671894	84.450037	-456.190219	-21.630658	80.929040	-56.096356	
1002	5.0100	557.926548	1228.852286	-74.854932	556.513598	1220.567380	-434.314128	532.440548	1339.561865	-250.136551	520.221990	1171.491391	-250.970941	466.573845	978.989223	52.871306	681.050734	893.514653	-28.205596	481.942749	980.359498	-578.080774	658.408027	882.915805	-439.838896	-0.382813	1154.217016	-233.413817	150.484065	1168.878772	-417.028945	159.148888	1149.118302	-78.465642	160.350214	1114.754917	-394.077502	187.526879	1113.729982	-112.638777	31.006613	1190.380596	-182.025354	24.337277	1196.838652	-287.706875	122.991697	1052.813317	-51.350779	97.165130	1025.594909	-434.439343	239.227818	1004.048634	-48.127904	319.670835	986.397075	-57.800814	404.494353	961.051309	-73.390744	332.236515	1038.258224	-76.066510	485.270304	896.159844	-108.062980	396.926818	828.123919	-76.185205	335.300563	770.734399	-80.467782	264.876112	716.572973	-88.830290	368.387246	733.757046	-114.259583	165.126780	642.592681	-105.562290	207.429108	623.598079	-182.821836	115.521822	645.391910	-160.883810	290.559371	437.354130	-134.651788	196.219855	495.583316	-70.730632	145.313159	903.362002	-441.397535	202.705977	835.538664	-441.762269	244.837952	870.377689	-440.383099	252.861204	767.726288	-423.382069	312.290581	662.031596	-411.642621	255.056710	565.563623	-444.816189	238.050595	480.878742	-437.486311	218.928048	398.092572	-424.241885	293.696947	472.451212	-412.685145	191.797198	273.997289	-408.951682	242.583164	313.298755	-330.257252	144.415448	250.860702	-368.354597	409.619472	170.414116	-374.682089	302.381527	167.489381	-441.134023	-224.014676	893.364662	-252.387892	-12.682525	84.491873	-456.166777	-21.640094	80.932103	-56.100039	
1003	5.0150	557.254206	1228.797429	-72.767713	558.021345	1219.945424	-432.132475	533.005739	1338.979445	-248.185624	520.441830	1171.069815	-249.016810	465.876724	978.172346	53.605138	680.544459	893.308560	-28.366619	482.516937	981.402682	-577.896582	658.697663	882.882900	-440.034194	-0.437477	1154.802506	-234.620253	151.562089	1167.880642	-416.979060	158.458734	1150.042930	-78.705607	160.649390	1114.617935	-394.455160	187.091262	1114.553921	-113.086017	30.839878	1190.830976	-183.304861	24.605193	1197.290520	-289.005043	122.417467	1054.164831	-51.751957	96.255570	1025.875023	-435.208017	238.475167	1006.780749	-48.402461	319.141261	990.259903	-57.976566	404.401152	966.287093	-73.212572	330.989655	1042.372175	-76.071386	485.584132	903.392382	-107.653634	399.100355	835.188596	-76.172090	338.330406	776.712177	-80.304964	268.684291	721.399290	-89.153604	372.167185	739.698540	-113.834608	170.233005	645.632434	-106.565511	213.129344	627.443016	-183.344354	120.195406	646.855014	-161.623947	301.310254	444.364816	-134.443892	205.041652	499.816500	-71.355956	142.904228	903.104240	-442.565827	198.948584	834.187951	-443.257126	241.922546	868.724217	-442.247158	248.427448	765.622842	-425.616340	306.210529	659.291301	-413.725973	247.583891	563.168924	-446.609445	230.181715	478.752800	-438.396116	210.542175	396.197055	-424.639726	286.170200	469.851580	-414.366739	183.364318	272.273776	-409.066887	234.465998	310.907230	-330.136111	136.078849	249.961022	-368.350383	399.897989	165.313151	-374.921899	292.568603	164.023063	-441.158359	-224.061232	893.376224	-252.419058	-12.693609	84.501616	-456.164644	-21.658172	80.934526	-56.095478	
1004	5.0200	556.606621	1228.931999	-69.442806	559.476670	1219.272866	-429.968914	533.542701	1338.312777	-246.209631	520.691750	1170.460051	-247.000177	464.962109	977.327074	54.413177	680.077978	893.089930	-28.454328	483.221719	982.333746	-577.648674	659.027659	882.369858	-439.906715	-0.531197	1155.424745	-235.735867	153.469134	1167.330033	-417.432261	157.773794	1150.939866	-78.859632	161.168152	1114.433269	-394.986067	186.239533	1115.693599	-113.020873	30.588633	1191.488129	-184.484092	24.830888	1197.999042	-290.239843	121.614628	1055.820576	-52.687127	95.314649	1026.203730	-435.876168	237.672244	1009.754055	-48.926429	318.510285	994.172403	-58.303166	404.184260	971.400196	-73.078152	329.833835	1046.582515	-76.211919	485.844469	910.254373	-107.174191	401.162152	841.376866	-75.689430	341.389009	781.687483	-80.153642	272.735984	725.347721	-89.260971	376.090790	745.080883	-113.284838	175.609168	647.946970	-107.340169	218.981362	630.448763	-183.715451	125.249655	647.476702	-162.032724	312.082826	450.633007	-134.449361	214.276469	503.391071	-71.365915	140.730273	903.012175	-443.712769	195.722910	833.290762	-444.902021	239.162616	867.383690	-444.222534	244.295891	764.178162	-427.565387	300.781174	657.090615	-415.724977	240.613498	561.552241	-447.661187	222.728206	477.288906	-439.199714	202.481405	394.950801	-425.062612	278.997054	467.880611	-415.998470	174.917407	271.297421	-409.190015	226.195901	308.945379	-329.988518	127.689640	249.806440	-368.329570	390.033773	160.926372	-375.134217	282.589413	161.362715	-441.286904	-224.095364	893.397712	-252.467097	-12.711889	84.513413	-456.173055	-21.672743	80.952096	-56.094616	
1005	5.0250	555.754566	1228.691595	-67.434531	560.958202	1218.446200	-427.726153	534.077779	1337.551359	-244.296627	520.907359	1169.884866	-244.821353	464.319421	976.417420	55.003765	679.661907	892.817963	-28.504300	483.926397	983.192914	-577.415955	659.417301	882.269204	-440.015518	-0.717554	1156.152399	-236.876892	155.345109	1166.842892	-417.768057	157.054824	1152.023873	-78.902254	161.310893	1114.287302	-395.461790	185.398785	1116.945714	-113.149929	30.228167	1192.233539	-185.603603	25.050251	1198.609027	-291.435374	121.081808	1057.775833	-52.953286	94.347161	1026.631413	-436.557059	236.836018	1013.018431	-49.512016	317.845962	998.261716	-58.709755	403.912679	976.360897	-72.959916	328.954697	1050.638207	-76.375406	490.451094	918.031279	-105.326243	403.226850	846.607892	-75.333139	344.444114	785.770413	-80.165834	277.012636	728.167068	-89.240505	380.145720	749.761154	-112.626179	181.597610	649.265239	-107.942306	224.815563	632.620398	-183.939678	130.640714	647.227262	-162.506474	322.893608	456.162044	-134.315608	223.535852	506.188328	-71.208462	138.822557	903.063295	-444.821181	192.871364	832.769935	-446.502605	236.648287	866.386074	-446.223273	240.374898	763.078210	-429.849819	296.082678	655.381950	-417.684179	234.600217	560.544283	-448.851538	215.845001	476.467258	-439.966794	194.790145	394.429465	-425.447575	272.314070	466.466466	-417.456455	166.513689	271.040848	-409.290570	217.813294	307.425192	-329.820496	119.292408	250.400581	-368.277992	380.044844	157.166545	-375.344190	272.520344	159.324296	-441.336673	-224.103284	893.426266	-252.508484	-12.703206	84.516191	-456.195783	-21.663609	80.956460	-56.112155	
